<svg width="1024" height="1024" viewBox="0 0 1024 1024" fill="none" xmlns="http://www.w3.org/2000/svg">
<g clip-path="url(#clip0)">
<rect width="1024" height="1024" fill="#FF7F7F"/>
<path d="M923.5 114.5H1036L1060 1042H849V939.5L761 787L682.5 755L612.5 706.5L736.5 658.5L849 504V211L923.5 114.5Z" fill="#FFC0C0"/>
<path d="M1038.96 1318.76C1038.96 1328.63 1024.16 1333.56 994.56 1333.56C906.747 1333.56 840.64 1319.25 796.24 1290.64C728.16 1246.24 694.12 1180.63 694.12 1093.8C694.12 1059.27 698.067 1001.55 705.96 920.64C708.92 890.053 710.4 867.36 710.4 852.56C710.4 816.053 702.013 789.413 685.24 772.64C668.467 754.88 637.387 741.067 592 731.2C580.16 728.24 574.24 722.32 574.24 713.44C574.24 702.587 584.107 695.68 603.84 692.72C635.413 688.773 661.067 675.947 680.8 654.24C700.533 632.533 710.4 606.387 710.4 575.8C710.4 561 708.92 536.827 705.96 503.28C698.067 414.48 694.12 354.787 694.12 324.2C694.12 234.413 731.613 169.293 806.6 128.84C850.013 105.16 917.107 93.3199 1007.88 93.3199C1028.6 93.3199 1038.96 97.7599 1038.96 106.64C1038.96 115.52 1026.13 119.96 1000.48 119.96C959.04 120.947 930.427 131.307 914.64 151.04C898.853 169.787 890.96 204.813 890.96 256.12C890.96 281.773 892.44 318.28 895.4 365.64C896.387 381.427 896.88 404.613 896.88 435.2C896.88 519.067 872.213 584.187 822.88 630.56C782.427 669.04 726.187 693.707 654.16 704.56C645.28 705.547 640.84 708.013 640.84 711.96C640.84 717.88 649.227 722.32 666 725.28C820.907 749.947 898.36 835.293 898.36 981.32C898.36 1007.96 897.867 1029.17 896.88 1044.96C893.92 1093.31 892.44 1131.79 892.44 1160.4C892.44 1225.52 904.773 1267.95 929.44 1287.68C945.227 1300.51 974.333 1306.92 1016.76 1306.92C1031.56 1306.92 1038.96 1310.87 1038.96 1318.76Z" fill="white"/>
</g>
<defs>
<clipPath id="clip0">
<rect width="1024" height="1024" fill="white"/>
</clipPath>
</defs>
</svg>
