<?xml version="1.0" encoding="UTF-8"?>
<svg width="87px" height="40px" viewBox="0 0 87 40" version="1.1" xmlns="http://www.w3.org/2000/svg" xmlns:xlink="http://www.w3.org/1999/xlink">
    <!-- Generator: Sketch 52.6 (67491) - http://www.bohemiancoding.com/sketch -->
    <title>Squiggles - Outlines</title>
    <desc>Created with Sketch.</desc>
    <g id="Squiggles---Outlines" stroke="none" stroke-width="1" fill="none" fill-rule="evenodd">
        <path d="M0,40 L0,24 C4.06783934,24 7.78670022,21.6551025 16.455659,14.0025044 C21.8840449,9.21054999 24.3831986,7.16781895 27.8483084,4.98292213 C32.9546447,1.76316326 38.0335782,0 43.5,0 C48.9664218,0 54.0453553,1.76316326 59.1516916,4.98292213 C62.6168014,7.16781895 65.1159551,9.21054999 70.544341,14.0025044 C79.2132998,21.6551025 82.9321607,24 87,24 L87,40 C81.5335782,40 76.4546447,38.2368367 71.3483084,35.0170779 C67.8831986,32.8321811 65.3840449,30.78945 59.955659,25.9974956 C51.2867002,18.3448975 47.5678393,16 43.5,16 C39.4321607,16 35.7132998,18.3448975 27.044341,25.9974956 C21.6159551,30.78945 19.1168014,32.8321811 15.6516916,35.0170779 C10.5453553,38.2368367 5.46642179,40 0,40 Z" id="Path-Copy" fill="#B33540" fill-rule="nonzero"></path>
    </g>
</svg>