<?xml version="1.0" encoding="UTF-8"?>
<svg width="128px" height="128px" viewBox="0 0 128 128" version="1.1" xmlns="http://www.w3.org/2000/svg" xmlns:xlink="http://www.w3.org/1999/xlink">
    <!-- Generator: Sketch 52.6 (67491) - http://www.bohemiancoding.com/sketch -->
    <title>loading</title>
    <desc>Created with Sketch.</desc>
    <g id="loading" stroke="none" stroke-width="1" fill="none" fill-rule="evenodd">
        <path d="M84.3196735,98.4618091 L95.8940628,110.036198 C86.8435004,116.318291 75.8517048,120 64,120 C33.072054,120 8,94.927946 8,64 C8,52.1482952 11.6817086,41.1564996 17.9638015,32.1059372 L29.5381909,43.6803265 C26.0192939,49.6354591 24,56.5819138 24,64 C24,86.09139 41.90861,104 64,104 C71.4180862,104 78.3645409,101.980706 84.3196735,98.4618091 Z M98.4618091,84.3196735 C101.980706,78.3645409 104,71.4180862 104,64 C104,41.90861 86.09139,24 64,24 C56.5819138,24 49.6354591,26.0192939 43.6803265,29.5381909 L32.1059372,17.9638015 C41.1564996,11.6817086 52.1482952,8 64,8 C94.927946,8 120,33.072054 120,64 C120,75.8517048 116.318291,86.8435004 110.036198,95.8940628 L98.4618091,84.3196735 Z" id="Combined-Shape" fill="#000000" fill-rule="nonzero"></path>
    </g>
</svg>