<?xml version="1.0" encoding="UTF-8"?>
<svg width="128px" height="128px" viewBox="0 0 128 128" version="1.1" xmlns="http://www.w3.org/2000/svg" xmlns:xlink="http://www.w3.org/1999/xlink">
    <!-- Generator: Sketch 52.6 (67491) - http://www.bohemiancoding.com/sketch -->
    <title>logo copy 5</title>
    <desc>Created with Sketch.</desc>
    <g id="logo-copy-5" stroke="none" stroke-width="1" fill="none" fill-rule="evenodd">
        <g id="Group" transform="translate(64.000000, 64.000000) rotate(-180.000000) translate(-64.000000, -64.000000) translate(4.000000, 4.000000)">
            <path d="M120,60 L60,60 L60,120 C26.862915,120 0,93.137085 0,60 C0,26.862915 26.862915,0 60,0 C93.137085,0 120,26.862915 120,60 Z" id="Combined-Shape" fill="#DC6E44"></path>
            <path d="M100,60 L60,60 L60,100 C37.90861,100 20,82.09139 20,60 C20,37.90861 37.90861,20 60,20 C82.09139,20 100,37.90861 100,60 Z" id="Combined-Shape" fill="#BEF0DA"></path>
            <path d="M80,60 L60,60 L60,80 C48.954305,80 40,71.045695 40,60 C40,48.954305 48.954305,40 60,40 C71.045695,40 80,48.954305 80,60 Z" id="Combined-Shape" fill="#6185C1"></path>
        </g>
    </g>
</svg>