<?xml version="1.0" encoding="UTF-8"?>
<svg width="128px" height="128px" viewBox="0 0 128 128" version="1.1" xmlns="http://www.w3.org/2000/svg" xmlns:xlink="http://www.w3.org/1999/xlink">
    <!-- Generator: Sketch 52.6 (67491) - http://www.bohemiancoding.com/sketch -->
    <title>pencil</title>
    <desc>Created with Sketch.</desc>
    <g id="pencil" stroke="none" stroke-width="1" fill="none" fill-rule="evenodd">
        <g id="Group" transform="translate(63.853553, 64.853553) rotate(-315.000000) translate(-63.853553, -64.853553) translate(47.853553, -4.646447)" fill="#000000">
            <path d="M0.96875,25 L31.71875,25 L31.71875,106 L0.96875,106 L0.96875,25 Z M0.96875,18 L0.96875,10.557189 C0.96875,4.83110081 5.61066162,0.189189189 11.3367498,0.189189189 L21.3507502,0.189189189 C27.0768384,0.189189189 31.71875,4.83110081 31.71875,10.557189 L31.71875,18 L0.96875,18 Z M31.71875,113 L31.71875,115.829014 C31.71875,117.445002 31.2152878,119.020846 30.2783476,120.337493 L18.4556158,136.951539 C18.2879897,137.187098 18.082135,137.392952 17.8465762,137.560579 C16.6802249,138.390567 15.0618722,138.11789 14.2318842,136.951539 L2.40915239,120.337493 C1.4722122,119.020846 0.96875,117.445002 0.96875,115.829014 L0.96875,113 L31.71875,113 Z" id="Combined-Shape"></path>
        </g>
    </g>
</svg>